# AST/ASF file generated using VICON BodyLanguage
# -----------------------------------------------
:version 1.10
:name VICON
:units
  mass 1.0
  length 0.45
  angle deg
:documentation
   .ast/.asf automatically generated from VICON data using
   VICON BodyBuilder and BodyLanguage model FoxedUp or BRILLIANT.MOD
:root
   order TX TY TZ RX RY RZ
   axis XYZ
   position 0 0 0  
   orientation 0 0 0 
:bonedata
  begin
     id 1 
     name lhipjoint
     direction 0.64773 -0.699417 0.302095 
     length 2.48597 
     axis 0 0 0  XYZ
  end
  begin
     id 2 
     name lfemur
     direction 0.34202 -0.939693 0  
     length 6.71947  
     axis 0 0 20  XYZ
    dof rx ry rz
    limits (-160.0 20.0)
           (-70.0 70.0)
           (-60.0 70.0)
  end
  begin
     id 3 
     name ltibia
     direction 0.34202 -0.939693 0   
     length 8.08777   
     axis 0 0 20   XYZ
    dof rx
    limits (-10.0 170.0)
  end
  begin
     id 4 
     name lfoot
     direction 0.0808503 -0.222134 0.971658   
     length 2.08264   
     axis -90 7.62852e-016 20   XYZ
    dof rx rz
    limits (-45.0 90.0)
           (-70.0 20.0)
  end
  begin
     id 5 
     name ltoes
     direction 1.53502e-011 -4.22007e-011 1   
     length 1.04662   
     axis -90 7.62852e-016 20   XYZ
    dof rx
    limits (-90.0 20.0)
  end
  begin
     id 6 
     name rhipjoint
     direction -0.610924 -0.726792 0.313919   
     length 2.39233  
     axis 0 0 0  XYZ 
  end
  begin
     id 7 
     name rfemur
     direction -0.34202 -0.939693 0   
     length 6.96955   
     axis 0 0 -20   XYZ
    dof rx ry rz
    limits (-160.0 20.0)
           (-70.0 70.0)
           (-70.0 60.0)
  end
  begin
     id 8 
     name rtibia
     direction -0.34202 -0.939693 0   
     length 8.19584   
     axis 0 0 -20   XYZ
    dof rx
    limits (-10.0 170.0)
 end
 begin
     id 9 
     name rfoot
     direction -0.077777 -0.213691 0.9738   
     length 2.07539  
     axis -90 -7.62852e-016 -20   XYZ
    dof rx rz
    limits (-45.0 90.0)
           (-20.0 70.0)
  end
  begin
     id 10 
     name rtoes
     direction -1.53558e-011 -4.22006e-011 1   
     length 1.04381   
     axis -90 -7.62852e-016 -20   XYZ
    dof rx
    limits (-90.0 20.0)
  end
  begin
     id 11 
     name lowerback
     direction -0.00971646 0.996074 0.0879841   
     length 1.67643   
     axis 0 0 0   XYZ
    dof rx ry rz
    limits (-20.0 45.0)
           (-30.0 30.0)
           (-30.0 30.0)
  end
  begin
     id 12 
     name upperback
     direction 0.0127391 0.991676 0.128127   
     length 1.63741   
     axis 0 0 0   XYZ
    dof rx ry rz
    limits (-20.0 45.0)
           (-30.0 30.0)
           (-30.0 30.0)
  end
  begin
     id 13 
     name thorax
     direction 0.0167583 0.996049 0.0872067   
     length 1.65931   
     axis 0 0 0   XYZ
    dof rx ry rz
    limits (-20.0 45.0)
           (-30.0 30.0)
           (-30.0 30.0)
  end
  begin
     id 14 
     name lowerneck
     direction -0.0317829 0.998312 0.0486079   
     length 1.79021   
     axis 0 0 0   XYZ
    dof rx ry rz
    limits (-20.0 45.0)
           (-30.0 30.0)
           (-30.0 30.0)
  end
  begin
     id 15 
     name upperneck
     direction 0.0896851 0.972452 -0.215159   
     length 1.78797   
     axis 0 0 0   XYZ
    dof rx ry rz
    limits (-20.0 45.0)
           (-30.0 30.0)
           (-30.0 30.0)
  end
  begin
     id 16
     name head
     direction 0.0310949 0.996503 -0.0775582  
     length 1.81549  
     axis 0 0 0   XYZ
    dof rx ry rz
    limits (-20.0 45.0)
           (-30.0 30.0)
           (-30.0 30.0)
  end
  begin
     id 17 
     name lclavicle
     direction 0.853638 0.502051 -0.138733  
     length 3.31627  
     axis 0 0 0   XYZ
    dof ry rz
    limits (-20.0 10.0)
           (0.0 20.0)
  end
  begin
     id 18 
     name lhumerus
     direction 1 -4.48962e-011 -1.41788e-018   
     length 5.54893   
     axis 180 -30 -90   XYZ
    dof rx ry rz
    limits (-60.0 90.0)
           (-90.0 90.0)
           (-90.0 90.0)
  end
  begin
     id 19
     name lradius
     direction 1 -4.48962e-011 -4.95754e-027   
     length 3.02898   
     axis 180 -30 -90   XYZ
    dof rx
    limits (-10.0 170.0)
  end
  begin
     id 20
     name lwrist
     direction 1 -4.48952e-011 -1.03764e-026   
     length 1.51449   
     axis 9.09556e-015 90 90   XYZ
    dof ry
    limits (-180.0 0.0)
 end
  begin
     id 21 
     name lhand
     direction 1 -4.4902e-011 -2.07528e-026   
     length 0.640951   
     axis 1.3242e-014 90 90   XYZ
    dof rx rz
    limits (-90.0 90.0)
           (-45.0 45.0)
  end
  begin
     id 22 
     name lfingers
     direction 1 -4.49014e-011 -4.15056e-026   
     length 0.516751   
     axis 2.64841e-014 90 90   XYZ
    dof rx
    limits (0.0 90.0)
  end
  begin
     id 23
     name lthumb
     direction 0.707107 -6.35008e-011 0.707107   
     length 0.741954   
     axis -90 45 2.85299e-015   XYZ
    dof rx rz
    limits (-45.0 45.0)
           (-45.0 45.0)
  end
  begin
     id 24 
     name rclavicle
     direction -0.888531 0.455324 -0.0565039   
     length 3.20126  
     axis 0 0 0   XYZ 
    dof ry rz
    limits (-10.0 20.0)
           (-20.0 0.0)
  end
  begin
     id 25 
     name rhumerus
     direction -1 -4.48946e-011 -8.98298e-028  
     length 5.3519   
     axis 180 30 90   XYZ
    dof rx ry rz
    limits (-90.0 60.0)
           (-90.0 90.0)
           (-90.0 90.0)
  end
  begin
     id 26 
     name rradius
     direction -1 -4.4899e-011 -3.18779e-027   
     length 3.02531   
     axis 180 30 90   XYZ
    dof rx
    limits (-10.0 170.0)
  end
  begin
     id 27 
     name rwrist
     direction -1 -4.4897e-011 -1.03764e-026   
     length 1.51266   
     axis 9.09556e-015 -90 -90   XYZ
    dof ry
    limits (-180.0 0.0)
  end
  begin
     id 28
     name rhand
     direction -1 -4.48941e-011 -2.07528e-026   
     length 0.78389   
     axis 1.3242e-014 -90 -90   XYZ
    dof rx rz
    limits (-90.0 90.0)
           (-45.0 45.0)
  end
  begin
     id 29
     name rfingers
     direction -1 -4.49012e-011 -4.15056e-026   
     length 0.631992   
     axis 2.64841e-014 -90 -90   XYZ
    dof rx
    limits (0.0 90.0)
  end
  begin
     id 30
     name rthumb
     direction -0.707107 -6.3496e-011 0.707107   
     length 0.907418   
     axis -90 -45 -2.85299e-015   XYZ
    dof rx rz
    limits (-45.0 45.0)
           (-45.0 45.0)
  end
:hierarchy
  begin
    root lhipjoint rhipjoint lowerback
    lhipjoint lfemur
    lfemur ltibia
    ltibia lfoot
    lfoot ltoes
    rhipjoint rfemur
    rfemur rtibia
    rtibia rfoot
    rfoot rtoes
    lowerback upperback
    upperback thorax
    thorax lowerneck lclavicle rclavicle
    lowerneck upperneck
    upperneck head
    lclavicle lhumerus
    lhumerus lradius
    lradius lwrist
    lwrist lhand lthumb
    lhand lfingers
    rclavicle rhumerus
    rhumerus rradius
    rradius rwrist
    rwrist rhand rthumb
    rhand rfingers
  end

#!OML:ASF E:\Style3\Style3.ASF
:FULLY-SPECIFIED
:DEGREES
2735
root 0.315469 17.816 1.22297 -165.668 66.4685 179.382
lowerback -5.18357 1.55235 -0.494983
upperback -5.47078 2.28649 -3.45595
thorax -2.61513 1.20799 -3.22816
lowerneck -4.90513 11.3592 5.33687
upperneck 22.0928 20.7187 -14.734
head 9.99489 9.44283 -3.50791
rclavicle -1.1455e-014 4.37326e-014
rhumerus 18.4636 8.56123 -52.9348
rradius 142.085
rwrist -3.1722
rhand -22.3528 30.9637
rfingers 7.12502
rthumb 4.06807 1.02277
lclavicle -1.1455e-014 4.37326e-014
lhumerus -18.752 -37.9271 82.751
lradius 120.334
lwrist 18.6205
lhand 17.1463 23.2117
lfingers 7.12502
lthumb 41.8679 47.8458
rfemur -10.3951 9.17337 19.2668
rtibia 12.3971
rfoot -18.1494 -29.5027
rtoes -9.32894
lfemur -13.0455 -16.5126 -9.56327
ltibia -6.36111e-015
lfoot -2.73551 4.05528
ltoes -25.6948
2736
root 0.314062 17.8158 1.22202 -165.567 66.4651 179.455
lowerback -5.17062 1.52044 -0.402386
upperback -5.54324 2.24226 -3.42683
thorax -2.69791 1.18356 -3.2541
lowerneck -5.21202 10.9421 5.13768
upperneck 22.5137 20.4113 -15.1617
head 10.2041 9.23002 -3.64459
rclavicle 2.88486e-014 -3.02153e-014
rhumerus 19.3319 7.06222 -53.1371
rradius 142.278
rwrist -2.02407
rhand -24.2934 31.2948
rfingers 7.12502
rthumb 2.19401 1.32638
lclavicle 2.88486e-014 -3.02153e-014
lhumerus -18.925 -37.8366 82.7023
lradius 120.328
lwrist 18.4696
lhand 17.1516 23.1118
lfingers 7.12502
lthumb 41.8729 47.7443
rfemur -10.4335 9.10024 19.2942
rtibia 12.3933
rfoot -18.1169 -29.4472
rtoes -9.31661
lfemur -13.0925 -16.4994 -9.52953
ltibia 1.90833e-014
lfoot -2.74895 4.10081
ltoes -25.7503
2737
root 0.312005 17.8164 1.22088 -165.596 66.4347 179.366
lowerback -5.25715 1.41118 -0.484251
upperback -5.66273 2.10615 -3.37383
thorax -2.78593 1.12127 -3.15813
lowerneck -5.01106 10.5785 5.18217
upperneck 22.6378 20.1463 -15.7723
head 10.2607 9.08716 -3.91366
rclavicle -6.18717e-015 1.11319e-014
rhumerus 20.2472 5.56783 -53.4851
rradius 142.507
rwrist -1.35271
rhand -25.6171 31.3814
rfingers 7.12502
rthumb 0.915607 1.4036
lclavicle -6.18717e-015 1.11319e-014
lhumerus -19.2696 -37.6258 82.6658
lradius 120.377
lwrist 18.355
lhand 17.2327 23.0899
lfingers 7.12502
lthumb 41.9489 47.6971
rfemur -10.4698 9.10617 19.247
rtibia 12.3575
rfoot -18.1103 -29.5047
rtoes -9.62617
lfemur -13.1626 -16.5246 -9.54428
ltibia 1.74931e-014
lfoot -2.71352 4.07303
ltoes -26.0673
2738
root 0.310652 17.8184 1.21898 -165.678 66.4236 179.22
lowerback -5.32788 1.29537 -0.584094
upperback -5.7255 1.95944 -3.3103
thorax -2.82442 1.05358 -3.04024
lowerneck -4.98448 10.249 5.10563
upperneck 22.7498 19.9275 -16.3583
head 10.3363 8.94572 -4.13957
rclavicle 1.58531e-014 1.59028e-015
rhumerus 21.4501 3.90197 -53.853
rradius 142.678
rwrist -0.918305
rhand -26.7726 31.2843
rfingers 7.12502
rthumb -0.200474 1.30467
lclavicle 1.58531e-014 1.59028e-015
lhumerus -19.375 -37.3608 82.4769
lradius 120.443
lwrist 18.3169
lhand 17.1761 23.2853
lfingers 7.12502
lthumb 41.8959 47.9101
rfemur -10.5306 9.10737 19.1687
rtibia 12.363
rfoot -18.0542 -29.5813
rtoes -9.9642
lfemur -13.2257 -16.5384 -9.59175
ltibia -5.00937e-014
lfoot -2.70166 4.04527
ltoes -25.4208
2739
root 0.310118 17.8192 1.21784 -165.641 66.3954 179.256
lowerback -5.31168 1.124 -0.63683
upperback -5.69799 1.72931 -3.13617
thorax -2.82184 0.940898 -2.83655
lowerneck -5.31527 10.0263 4.8167
upperneck 22.9509 19.9134 -16.9262
head 10.5207 8.85331 -4.27382
rclavicle 3.09856e-014 -3.26007e-014
rhumerus 23.0447 2.34303 -54.2565
rradius 142.774
rwrist -0.593481
rhand -28.2016 31.3237
rfingers 7.12502
rthumb -1.58066 1.34979
lclavicle 3.09856e-014 -3.26007e-014
lhumerus -19.2867 -36.8066 82.2529
lradius 120.461
lwrist 18.2831
lhand 17.2599 23.3506
lfingers 7.12502
lthumb 41.9745 47.9492
rfemur -10.5406 9.18966 19.1784
rtibia 12.3747
rfoot -18.0473 -29.7008
rtoes -9.7842
lfemur -13.2489 -16.558 -9.57332
ltibia 1.90833e-014
lfoot -2.67182 4.02244
ltoes -25.4342
2740
root 0.309755 17.8191 1.21712 -165.67 66.3575 179.229
lowerback -5.31125 1.03396 -0.671737
upperback -5.66162 1.60853 -3.06705
thorax -2.79205 0.881588 -2.7479
lowerneck -5.63986 9.74306 4.69708
upperneck 23.2185 19.7951 -17.4521
head 10.7276 8.72514 -4.44053
rclavicle -1.72197e-014 7.95139e-016
rhumerus 24.3717 0.781416 -54.6081
rradius 142.916
rwrist -0.189111
rhand -29.795 31.1383
rfingers 7.12502
rthumb -3.11947 1.18139
lclavicle -1.72197e-014 7.95139e-016
lhumerus -19.1169 -36.5363 81.9924
lradius 120.433
lwrist 18.2398
lhand 17.3371 23.2936
lfingers 7.12502
lthumb 42.0468 47.868
rfemur -10.5221 9.17803 19.1731
rtibia 12.3696
rfoot -18.0783 -29.7001
rtoes -9.39484
lfemur -13.2618 -16.595 -9.58074
ltibia 1.35174e-014
lfoot -2.63894 4.02084
ltoes -25.5891
2741
root 0.308315 17.8196 1.21414 -165.764 66.2666 179.151
lowerback -5.30567 1.00967 -0.63583
upperback -5.61448 1.57367 -3.1035
thorax -2.74576 0.861751 -2.80586
lowerneck -5.8778 9.44816 4.68243
upperneck 23.4939 19.6172 -17.8839
head 10.9108 8.58975 -4.60958
rclavicle 2.31087e-015 1.66979e-014
rhumerus 25.5411 -0.960156 -54.9385
rradius 143.08
rwrist 0.238671
rhand -31.1094 31.2444
rfingers 7.12502
rthumb -4.38875 1.30985
lclavicle 2.31087e-015 1.66979e-014
lhumerus -18.94 -36.5143 81.7545
lradius 120.416
lwrist 18.2082
lhand 17.4023 23.2224
lfingers 7.12502
lthumb 42.1079 47.7762
rfemur -10.4825 9.11787 19.1476
rtibia 12.3674
rfoot -18.191 -29.6649
rtoes -9.21745
lfemur -13.2735 -16.6931 -9.6054
ltibia -6.36111e-015
lfoot -2.61843 4.04218
ltoes -25.5678
2742
root 0.306371 17.8198 1.21186 -165.837 66.1494 179.062
lowerback -5.26417 0.989843 -0.613551
upperback -5.6246 1.54605 -3.13842
thorax -2.77935 0.84681 -2.85674
lowerneck -6.04261 9.12622 4.6443
upperneck 23.8256 19.3912 -18.2193
head 11.0793 8.44182 -4.75696
rclavicle 5.1684e-015 -5.00937e-014
rhumerus 26.6349 -2.67628 -55.1764
rradius 143.15
rwrist 0.708866
rhand -32.6698 32.1689
rfingers 7.12502
rthumb -5.8954 2.27091
lclavicle 5.1684e-015 -5.00937e-014
lhumerus -18.8561 -36.5601 81.6111
lradius 120.388
lwrist 18.1956
lhand 17.4605 23.0678
lfingers 7.12502
lthumb 42.1624 47.6032
rfemur -10.4987 9.00085 19.1273
rtibia 12.4048
rfoot -18.2432 -29.667
rtoes -9.35846
lfemur -13.3313 -16.8093 -9.6086
ltibia 5.00937e-014
lfoot -2.58808 4.05385
ltoes -25.1203
2743
root 0.308271 17.8194 1.21062 -165.809 66.0788 179.053
lowerback -5.28756 0.938539 -0.667243
upperback -5.67066 1.48196 -3.10846
thorax -2.81909 0.818031 -2.79799
lowerneck -6.18851 8.81515 4.67825
upperneck 24.2409 19.2293 -18.6137
head 11.3023 8.32441 -4.93382
rclavicle 4.17199e-014 1.90833e-014
rhumerus 27.7112 -4.13704 -55.2864
rradius 143.131
rwrist 1.18443
rhand -34.5199 33.2799
rfingers 7.12502
rthumb -7.68144 3.43946
lclavicle 4.17199e-014 1.90833e-014
lhumerus -18.8841 -36.4647 81.5532
lradius 120.378
lwrist 18.1858
lhand 17.3508 23.1996
lfingers 7.12502
lthumb 42.0596 47.7696
rfemur -10.5278 8.97089 19.133
rtibia 12.4161
rfoot -18.2153 -29.7178
rtoes -9.41977
lfemur -13.3874 -16.8691 -9.58955
ltibia -1.66979e-014
lfoot -2.55791 4.07064
ltoes -25.0864
